<?xml version="1.0" standalone="no"?>
<!DOCTYPE svg PUBLIC "-//W3C//DTD SVG 20010904//EN"
 "http://www.w3.org/TR/2001/REC-SVG-20010904/DTD/svg10.dtd">
<svg version="1.0" xmlns="http://www.w3.org/2000/svg"
 width="199.000000pt" height="130.000000pt" viewBox="0 0 199.000000 130.000000"
 preserveAspectRatio="xMidYMid meet">

<g transform="translate(0.000000,130.000000) scale(0.100000,-0.100000)"
fill="#000000" stroke="none">
<path d="M622 1103 c-31 -6 -37 -27 -18 -55 24 -34 23 -258 -1 -299 -25 -42
-9 -49 107 -49 111 0 163 19 203 71 75 99 49 251 -53 308 -34 19 -60 24 -129
27 -47 1 -96 0 -109 -3z m186 -66 c31 -33 46 -124 32 -190 -16 -77 -33 -97
-80 -97 l-40 0 0 155 0 155 33 0 c22 0 41 -8 55 -23z"/>
<path d="M1123 1101 c-52 -13 -81 -38 -94 -80 -17 -59 7 -94 111 -157 45 -29
87 -59 92 -68 22 -39 -39 -80 -88 -57 -19 9 -24 18 -24 50 0 44 -20 71 -53 71
-46 0 -75 -46 -57 -89 16 -40 63 -63 140 -69 91 -6 154 20 177 75 24 58 0 94
-111 163 -95 59 -114 84 -90 119 31 43 84 15 84 -45 0 -27 5 -37 22 -43 78
-29 106 74 31 112 -37 19 -101 27 -140 18z"/>
<path d="M307 510 c-66 -12 -152 -55 -177 -90 -37 -52 -18 -125 45 -172 l23
-18 -15 31 c-14 28 -14 34 0 64 21 44 86 74 174 82 128 11 288 -21 637 -127
266 -80 333 -93 476 -94 110 -1 131 2 175 22 133 61 155 147 65 261 -45 56
-60 64 -52 26 7 -38 -23 -74 -86 -103 -52 -23 -68 -26 -167 -24 -112 2 -171
12 -495 86 -271 62 -462 79 -603 56z"/>
</g>
</svg>
